<?xml version="1.0" encoding="UTF-8" standalone="no"?>
<!-- Created with Inkscape (http://www.inkscape.org/) -->

<svg
   xmlns:dc="http://purl.org/dc/elements/1.1/"
   xmlns:cc="http://creativecommons.org/ns#"
   xmlns:rdf="http://www.w3.org/1999/02/22-rdf-syntax-ns#"
   xmlns:svg="http://www.w3.org/2000/svg"
   xmlns="http://www.w3.org/2000/svg"
   xmlns:xlink="http://www.w3.org/1999/xlink"
   xmlns:sodipodi="http://sodipodi.sourceforge.net/DTD/sodipodi-0.dtd"
   xmlns:inkscape="http://www.inkscape.org/namespaces/inkscape"
   width="199.08369"
   height="197.30617"
   id="svg3786"
   version="1.1"
   inkscape:version="0.48.0 r9654"
   sodipodi:docname="Allsvenskan.svg"
   style="display:inline">
  <defs
     id="defs3788">
    <linearGradient
       id="linearGradient4336">
      <stop
         style="stop-color:#7199c7;stop-opacity:1;"
         offset="0"
         id="stop4338" />
      <stop
         style="stop-color:#000945;stop-opacity:1;"
         offset="1"
         id="stop4340" />
    </linearGradient>
    <radialGradient
       inkscape:collect="always"
       xlink:href="#linearGradient4336"
       id="radialGradient4342"
       cx="363.80179"
       cy="390.48734"
       fx="363.80179"
       fy="390.48734"
       r="99.541847"
       gradientTransform="matrix(1,0,0,0.99107146,0,3.822771)"
       gradientUnits="userSpaceOnUse" />
  </defs>
  <sodipodi:namedview
     id="base"
     pagecolor="#ffffff"
     bordercolor="#666666"
     borderopacity="1.0"
     inkscape:pageopacity="0.0"
     inkscape:pageshadow="2"
     inkscape:zoom="1.6877323"
     inkscape:cx="99.541847"
     inkscape:cy="123.12163"
     inkscape:document-units="px"
     inkscape:current-layer="layer3"
     showgrid="false"
     inkscape:window-width="1152"
     inkscape:window-height="672"
     inkscape:window-x="0"
     inkscape:window-y="0"
     inkscape:window-maximized="0"
     fit-margin-top="0"
     fit-margin-left="0"
     fit-margin-right="0"
     fit-margin-bottom="0" />
  <metadata
     id="metadata3791">
    <rdf:RDF>
      <cc:Work
         rdf:about="">
        <dc:format>image/svg+xml</dc:format>
        <dc:type
           rdf:resource="http://purl.org/dc/dcmitype/StillImage" />
        <dc:title></dc:title>
      </cc:Work>
    </rdf:RDF>
  </metadata>
  <g
     inkscape:groupmode="layer"
     id="layer3"
     inkscape:label="Logo"
     style="display:inline"
     transform="translate(-292.10793,-329.49874)">
    <path
       sodipodi:type="arc"
       style="fill:url(#radialGradient4342);fill-opacity:1;stroke:none"
       id="path4333"
       sodipodi:cx="391.64978"
       sodipodi:cy="428.15182"
       sodipodi:rx="99.541847"
       sodipodi:ry="98.653084"
       d="m 491.19163,428.15182 c 0,54.4846 -44.56641,98.65309 -99.54185,98.65309 -54.97544,0 -99.54185,-44.16849 -99.54185,-98.65309 0,-54.48459 44.56641,-98.65308 99.54185,-98.65308 54.97544,0 99.54185,44.16849 99.54185,98.65308 z" />
    <path
       sodipodi:type="arc"
       style="fill:none;stroke:#ffc20e;stroke-width:8.30000019;stroke-miterlimit:4;stroke-opacity:1;stroke-dasharray:none"
       id="path4344"
       sodipodi:cx="391.35352"
       sodipodi:cy="428.15182"
       sodipodi:rx="83.247795"
       sodipodi:ry="82.655289"
       d="m 474.60131,428.15182 c 0,45.64926 -37.27131,82.65529 -83.24779,82.65529 -45.97649,0 -83.2478,-37.00603 -83.2478,-82.65529 0,-45.64925 37.27131,-82.65528 83.2478,-82.65528 45.97648,0 83.24779,37.00603 83.24779,82.65528 z"
       transform="matrix(0.99189993,0,0,1,3.6806989,0.59251101)" />
    <path
       style="fill:#ffffff;stroke:none"
       d="m 340.1875,386.1875 c -13.02621,13.44593 -17.98584,45.466 -9.1875,68.71875 8.79834,23.25276 34.33702,37.71731 41.25,28.5 6.91298,-9.2173 -2.734,-14.46656 -9.4375,-18.65625 -6.7035,-4.18968 -11.09375,-11.9375 -11.09375,-11.9375 l 79.0625,0 c 0,0 -4.39025,7.74782 -11.09375,11.9375 -6.7035,4.18969 -16.35048,9.43895 -9.4375,18.65625 6.91298,9.21731 32.45166,-5.24724 41.25,-28.5 8.79834,-23.25275 7.02808,-53.19623 -9.1875,-68.71875 -16.21558,-15.52252 -32.89798,-23.375 -51.0625,-23.375 -18.16452,0 -38.03629,9.92907 -51.0625,23.375 z m 50.59375,-3.8125 c 0.31055,0.005 0.62939,-0.01 0.9375,0 16.5366,0.53041 29.54372,7.4984 37.9375,19.71875 10.07268,14.66465 8,30.8125 8,30.8125 l -92.8125,0 c 0,0 -2.07268,-16.14785 8,-30.8125 8.39378,-12.22035 21.4009,-19.18834 37.9375,-19.71875 z"
       id="path4346"
       inkscape:connector-curvature="0"
       sodipodi:nodetypes="zsssccssszzzcssccsc" />
  </g>
</svg>
